<?xml version="1.0" standalone="no"?>
<!DOCTYPE svg PUBLIC "-//W3C//DTD SVG 20010904//EN"
 "http://www.w3.org/TR/2001/REC-SVG-20010904/DTD/svg10.dtd">
<svg version="1.0" xmlns="http://www.w3.org/2000/svg"
 width="512.000000pt" height="512.000000pt" viewBox="0 0 512.000000 512.000000"
 preserveAspectRatio="xMidYMid meet">

<g transform="translate(0.000000,512.000000) scale(0.100000,-0.100000)"
fill="#000000" stroke="none">
<path d="M1280 4947 c-49 -16 -133 -102 -148 -153 -17 -58 -17 -890 0 -948 16
-55 99 -138 154 -154 27 -8 117 -12 258 -12 l216 0 0 -80 0 -80 -531 0 c-320
0 -537 -4 -548 -10 -10 -5 -114 -162 -231 -350 l-212 -340 4 -137 c3 -130 5
-142 35 -205 42 -90 100 -150 186 -193 38 -19 76 -35 83 -35 12 0 14 -131 14
-805 l0 -805 -96 0 c-128 0 -168 -13 -229 -75 -64 -63 -75 -100 -75 -244 0
-105 1 -113 25 -136 l24 -25 2351 0 2351 0 24 25 c24 23 25 31 25 136 0 144
-11 181 -75 244 -61 62 -101 75 -229 75 l-96 0 0 805 c0 674 2 805 14 805 7 0
45 16 83 35 86 43 144 103 186 193 30 63 32 75 35 205 l4 137 -212 340 c-117
188 -221 345 -231 350 -11 6 -228 10 -548 10 l-531 0 0 80 0 80 216 0 c141 0
231 4 258 12 55 16 138 99 154 154 17 58 17 890 0 948 -16 55 -99 138 -154
154 -56 16 -2501 16 -2554 -1z m2535 -172 l25 -24 0 -431 0 -431 -25 -24 -24
-25 -1231 0 -1231 0 -24 25 -25 24 0 431 0 431 25 24 24 25 1231 0 1231 0 24
-25z m-615 -1175 l0 -80 -640 0 -640 0 0 80 0 80 640 0 640 0 0 -80z m-2170
-480 l-120 -240 -220 0 c-121 0 -220 2 -220 5 0 3 66 111 147 240 l146 235
194 0 193 0 -120 -240z m690 233 c0 -3 -39 -111 -87 -240 l-88 -233 -227 0
-228 0 120 240 120 240 195 0 c107 0 195 -3 195 -7z m506 -30 c-3 -21 -15
-112 -26 -203 -11 -91 -23 -182 -26 -202 l-6 -38 -224 0 c-123 0 -224 3 -224
7 0 3 39 111 87 240 l88 233 168 0 169 0 -6 -37z m508 0 c3 -21 15 -112 26
-203 11 -91 23 -182 26 -202 l6 -38 -232 0 -232 0 6 38 c3 20 15 111 26 202
11 91 23 182 26 203 l6 37 168 0 168 0 6 -37z m579 -196 c48 -129 87 -237 87
-240 0 -4 -101 -7 -224 -7 l-224 0 -6 38 c-3 20 -15 111 -26 202 -11 91 -23
182 -26 203 l-6 37 169 0 168 0 88 -233z m597 -7 l120 -240 -228 0 -227 0 -88
233 c-48 129 -87 237 -87 240 0 4 88 7 195 7 l195 0 120 -240z m593 5 c81
-129 147 -237 147 -240 0 -3 -99 -5 -220 -5 l-220 0 -120 240 -120 240 193 0
194 0 146 -235z m-3623 -461 c0 -87 -18 -133 -75 -189 -51 -52 -102 -75 -165
-75 -63 0 -114 23 -165 75 -57 56 -75 102 -75 189 l0 56 240 0 240 0 0 -56z
m640 0 c0 -31 -5 -75 -12 -98 -16 -55 -99 -138 -154 -154 -94 -28 -169 -8
-239 63 -57 56 -75 102 -75 189 l0 56 240 0 240 0 0 -56z m640 0 c0 -31 -5
-75 -12 -98 -16 -55 -99 -138 -154 -154 -94 -28 -169 -8 -239 63 -57 56 -75
102 -75 189 l0 56 240 0 240 0 0 -56z m640 0 c0 -31 -5 -75 -12 -98 -16 -55
-99 -138 -154 -154 -94 -28 -169 -8 -239 63 -57 56 -75 102 -75 189 l0 56 240
0 240 0 0 -56z m640 0 c0 -31 -5 -75 -12 -98 -16 -55 -99 -138 -154 -154 -94
-28 -169 -8 -239 63 -57 56 -75 102 -75 189 l0 56 240 0 240 0 0 -56z m640 0
c0 -31 -5 -75 -12 -98 -16 -55 -99 -138 -154 -154 -94 -28 -169 -8 -239 63
-57 56 -75 102 -75 189 l0 56 240 0 240 0 0 -56z m640 0 c0 -31 -5 -75 -12
-98 -16 -55 -99 -138 -154 -154 -94 -28 -169 -8 -239 63 -57 56 -75 102 -75
189 l0 56 240 0 240 0 0 -56z m-3715 -310 c26 -26 78 -60 114 -78 60 -28 75
-31 161 -31 86 0 101 3 161 31 36 18 87 52 113 76 l46 45 46 -45 c26 -24 77
-58 113 -76 60 -28 75 -31 161 -31 86 0 101 3 161 31 36 18 87 52 113 76 l46
45 46 -45 c26 -24 77 -58 113 -76 60 -28 75 -31 161 -31 86 0 101 3 161 31 36
18 87 52 113 76 l46 45 46 -45 c26 -24 77 -58 113 -76 60 -28 75 -31 161 -31
86 0 101 3 161 31 36 18 87 52 113 76 l46 45 46 -45 c26 -24 77 -58 113 -76
60 -28 75 -31 161 -31 86 0 101 3 161 31 36 18 87 52 113 76 l46 45 46 -45
c43 -40 152 -102 182 -102 9 0 12 -168 12 -805 l0 -805 -320 0 -320 0 0 536
c0 392 -3 548 -12 578 -16 55 -99 138 -154 154 -60 17 -2008 17 -2068 0 -55
-16 -138 -99 -154 -154 -9 -30 -12 -186 -12 -578 l0 -536 -320 0 -320 0 0 803
0 802 48 17 c59 21 135 71 165 108 12 16 22 29 23 29 0 1 22 -20 49 -45z
m1475 -1154 l0 -560 -480 0 -480 0 0 535 0 536 25 24 24 25 456 0 455 0 0
-560z m1095 535 l25 -24 0 -536 0 -535 -480 0 -480 0 0 560 0 560 455 0 456 0
24 -25z m1200 -1280 c21 -20 25 -34 25 -80 l0 -55 -2240 0 -2240 0 0 55 c0 46
4 60 25 80 l24 25 2191 0 2191 0 24 -25z"/>
<path d="M1680 4707 c-49 -16 -133 -102 -148 -153 -28 -94 -8 -169 63 -239 51
-52 102 -75 164 -75 42 0 81 -38 81 -80 0 -41 -39 -80 -80 -80 -41 0 -80 39
-80 80 0 41 -39 80 -80 80 -42 0 -80 -39 -80 -81 0 -62 23 -113 75 -164 52
-53 102 -75 167 -75 124 0 238 115 238 240 0 124 -114 240 -237 240 -73 0
-109 85 -58 135 49 50 135 15 135 -55 0 -41 39 -80 80 -80 42 0 80 39 80 81 0
62 -23 113 -75 164 -70 71 -152 91 -245 62z"/>
<path d="M2105 4695 l-25 -24 0 -351 0 -351 25 -24 c15 -16 36 -25 55 -25 19
0 40 9 55 25 24 23 25 29 25 160 l0 135 80 0 80 0 0 -135 c0 -131 1 -137 25
-160 15 -16 36 -25 55 -25 19 0 40 9 55 25 l25 24 0 351 0 351 -25 24 c-15 16
-36 25 -55 25 -19 0 -40 -9 -55 -25 -24 -23 -25 -29 -25 -160 l0 -135 -80 0
-80 0 0 135 c0 131 -1 137 -25 160 -15 16 -36 25 -55 25 -19 0 -40 -9 -55 -25z"/>
<path d="M2800 4707 c-49 -16 -133 -102 -148 -153 -8 -26 -12 -112 -12 -234 0
-231 6 -257 75 -325 73 -74 151 -92 248 -59 57 19 128 93 145 152 8 24 12 112
12 232 0 120 -4 208 -12 232 -17 59 -88 133 -145 152 -53 18 -112 19 -163 3z
m135 -172 c25 -24 25 -26 25 -215 0 -189 0 -191 -25 -215 -15 -16 -36 -25 -55
-25 -19 0 -40 9 -55 25 -25 24 -25 26 -25 215 0 189 0 191 25 215 15 16 36 25
55 25 19 0 40 -9 55 -25z"/>
<path d="M3225 4695 l-25 -24 0 -351 0 -351 25 -24 c15 -16 36 -25 55 -25 19
0 40 9 55 25 24 23 25 29 25 160 l0 135 58 0 c87 0 144 23 195 80 93 103 90
228 -8 325 -63 64 -100 75 -244 75 -105 0 -113 -1 -136 -25z m270 -160 c16
-15 25 -36 25 -55 0 -51 -38 -80 -105 -80 l-55 0 0 80 0 80 55 0 c46 0 60 -4
80 -25z"/>
<path d="M2265 1255 c-22 -21 -25 -33 -25 -95 0 -62 3 -74 25 -95 15 -16 36
-25 55 -25 19 0 40 9 55 25 22 21 25 33 25 95 0 62 -3 74 -25 95 -15 16 -36
25 -55 25 -19 0 -40 -9 -55 -25z"/>
<path d="M2745 1255 c-22 -21 -25 -33 -25 -95 0 -62 3 -74 25 -95 15 -16 36
-25 55 -25 19 0 40 9 55 25 22 21 25 33 25 95 0 62 -3 74 -25 95 -15 16 -36
25 -55 25 -19 0 -40 -9 -55 -25z"/>
</g>
</svg>
